PathFileType	4	(X/Y/Z)	Walk4.trc
DataRate	CameraRate	NumFrames	NumMarkers	Units	OrigDataRate	OrigDataStartFrame	OrigNumFrames
200.000000	200.000000	8	59	mm	200.000000	282	583
Frame#	Times		LFHD		RFHD		CLAV		STRN		LASI		RASI		RACR1		RUA1		RElbow		RFA1		RWRR		RWRU		RCAR		LACR1		LUA1		LElbow		LFA1		LWRR		LWRU		LCAR		RTH3		RTH2		RTB1		RTB2		LTH1		LTH3		LTH2		LLFC		LMFC		LTB1		LTB3		LTB2		LTB4		LMT1		LToe		LMT5		RTB4		RTB3		RMFC		LTH4		RTH4		RMT1		RElbowM		RLFC		LBHD		RToe		RMMAL		RTH1		RCAL		RBack		LLMAL		RPSI		C7		LElbowM		T10		LPSI		LMMAL		RBHD		LCAL
			X1	Y1	Z1	X2	Y2	Z2	X3	Y3	Z3	X4	Y4	Z4	X5	Y5	Z5	X6	Y6	Z6	X7	Y7	Z7	X8	Y8	Z8	X9	Y9	Z9	X10	Y10	Z10	X11	Y11	Z11	X12	Y12	Z12	X13	Y13	Z13	X14	Y14	Z14	X15	Y15	Z15	X16	Y16	Z16	X17	Y17	Z17	X18	Y18	Z18	X19	Y19	Z19	X20	Y20	Z20	X21	Y21	Z21	X22	Y22	Z22	X23	Y23	Z23	X24	Y24	Z24	X25	Y25	Z25	X26	Y26	Z26	X27	Y27	Z27	X28	Y28	Z28	X29	Y29	Z29	X30	Y30	Z30	X31	Y31	Z31	X32	Y32	Z32	X33	Y33	Z33	X34	Y34	Z34	X35	Y35	Z35	X36	Y36	Z36	X37	Y37	Z37	X38	Y38	Z38	X39	Y39	Z39	X40	Y40	Z40	X41	Y41	Z41	X42	Y42	Z42	X43	Y43	Z43	X44	Y44	Z44	X45	Y45	Z45	X46	Y46	Z46	X47	Y47	Z47	X48	Y48	Z48	X49	Y49	Z49	X50	Y50	Z50	X51	Y51	Z51	X52	Y52	Z52	X53	Y53	Z53	X54	Y54	Z54	X55	Y55	Z55	X56	Y56	Z56	X57	Y57	Z57	X58	Y58	Z58	X59	Y59	Z59

282	1.41	-307.78	1650.9	-99.977	-304.32	1663.3	-1.0467	-298.23	1401.2	-18.286	-229.59	1245.1	-8.2505	-345.39	979.43	-173.76	-341.16	986.34	178.82	-412.27	1495.6	149.96	-437.67	1336.5	278.13	-424.92	1192.3	336.54	-374.99	1048.2	353.83	-342.55	932.1	285.54	-345.46	938.9	366.97	-305.04	857.25	334.87	-417.14	1453.3	-199.75	-471.3	1279.3	-273.21	-506.94	1116.2	-310.86	-495.12	975.72	-318.67	-443.22	852.03	-261.81	-497.01	836.54	-310.85	-440.28	766.2	-296.97	-423.38	593.25	226.76	-376.84	686.31	215.51	-483.69	361.58	150.19	-570.11	329.28	200.33	-373.57	760.92	-195.38	-327.5	598.12	-169.39	-295.27	697.44	-170.5	-329.18	513.5	-165.51	-297.73	512.27	-10.948	-249.08	396.97	-104.77	-264.54	230	-66.036	-285.54	304.4	-136.3	-252.69	314.93	-84.355	-194.77	37.489	-55.396	-147.21	32.753	-97.423	-267.44	25.736	-127.97	-557.71	316.52	141.91	-630.79	271.38	133.28	-436.35	481.01	67.25	-351.97	679.94	-181.83	-432.36	678.71	229.98	-750.77	80.231	93.891	-471.98	1113.7	244.44	-451.1	490.05	223.46	-455.84	1569	-97.096	-726.03	41.712	133.31	-762.76	223.23	75.528	-443.3	764.9	231.78	-843.48	277	111.53	-556.46	1371.7	105.23	-357.96	73.748	-56.684	-602.75	1023.2	38.385	-493.96	1479.5	-20.137	-561.73	1070.1	-206.25	-558.41	1164.1	3.4317	-590.05	1031.6	-46.332	-323.62	84.227	25.176	-437.18	1592.5	48.583	-402.3	47.174	5.174
283	1.415	-301.49	1652.1	-100.13	-298.05	1664.4	-1.177	-292.26	1402.3	-18.755	-223.77	1246.1	-8.984	-339.7	980.73	-174.54	-335.08	987.74	178.32	-406.28	1496.6	149.56	-432.07	1337.4	277.55	-419.69	1193	335.87	-370.43	1048.6	353.1	-338.52	932.41	284.85	-341.47	939.21	366.27	-301.39	857.38	334.17	-411.1	1454.6	-200.24	-464.25	1280.3	-273.94	-498.53	1116.9	-311.74	-485.33	976.53	-319.59	-431.99	853.42	-262.95	-485.7	837.37	-311.86	-427.81	767.95	-298.5	-411.66	594.84	226.65	-366.39	688.52	215.25	-470.02	363.41	149.97	-556.31	330.81	200.1	-369.48	761.41	-195.85	-324.79	598.24	-169.69	-291.71	697.28	-170.86	-327.14	513.57	-165.68	-295.89	512.12	-11.109	-247.69	396.6	-104.93	-263.83	229.72	-66.107	-284.54	304.16	-136.42	-251.63	314.59	-84.473	-194.75	37.492	-55.483	-147.02	32.316	-97.697	-267.47	25.696	-128	-543.93	318.23	141.6	-616.89	272.97	132.87	-423.44	482.67	67.224	-348.56	680.26	-182.2	-421.84	680.17	229.73	-735.05	81.893	94.359	-467.17	1114.7	243.69	-437.95	491.72	223.45	-449.66	1570.5	-97.448	-710.1	43.746	133.81	-748.73	224.53	75.172	-433.99	766.2	231.35	-830.07	277.62	111.09	-550.55	1372.8	104.53	-357.81	73.818	-56.645	-596.65	1024.2	37.904	-487.91	1480.7	-20.561	-552.93	1070.1	-207.12	-552.45	1165.3	2.7679	-584.32	1032.9	-46.747	-323.44	84.222	25.216	-431.03	1593.7	48.294	-402.24	47.299	5.2425
284	1.42	-295.22	1653.3	-100.24	-291.79	1665.5	-1.2632	-286.31	1403.4	-19.189	-217.97	1247	-9.678	-334.05	982	-175.32	-329.04	989.14	177.95	-400.33	1497.5	149.19	-426.47	1338.3	276.98	-414.48	1193.7	335.22	-365.9	1049.1	352.41	-334.5	932.68	284.21	-337.5	939.49	365.62	-297.72	857.5	333.54	-405.09	1456	-200.71	-457.22	1281.3	-274.67	-490.09	1117.5	-312.61	-475.49	977.34	-320.51	-420.73	854.84	-264.07	-474.34	838.22	-312.88	-415.32	769.72	-299.99	-400	596.54	226.53	-356	690.83	214.98	-456.26	365.27	149.75	-542.42	332.27	199.84	-365.46	761.88	-196.31	-322.12	598.35	-169.97	-288.21	697.09	-171.23	-325.16	513.63	-165.84	-294.07	511.98	-11.257	-246.34	396.24	-105.08	-263.14	229.46	-66.175	-283.56	303.94	-136.53	-250.61	314.27	-84.584	-194.73	37.491	-55.572	-146.85	31.89	-97.969	-267.5	25.653	-128.03	-530.01	319.86	141.29	-602.78	274.38	132.45	-410.61	484.41	67.184	-345.2	680.57	-182.57	-411.36	681.72	229.46	-718.75	83.26	94.777	-462.38	1115.6	242.95	-424.87	493.51	223.4	-443.51	1571.9	-97.766	-693.46	45.675	134.24	-734.38	225.44	74.746	-424.71	767.58	230.92	-816.46	277.71	110.53	-544.65	1373.9	103.85	-357.66	73.892	-56.604	-590.59	1025.3	37.434	-481.9	1481.9	-20.965	-544.11	1070.2	-208	-546.5	1166.5	2.1042	-578.62	1034.2	-47.136	-323.25	84.216	25.259	-424.9	1594.8	48.041	-402.16	47.426	5.3204
285	1.425	-288.96	1654.5	-100.31	-285.56	1666.5	-1.3069	-280.4	1404.4	-19.587	-212.19	1248	-10.332	-328.44	983.25	-176.12	-323.03	990.54	177.71	-394.42	1498.4	148.84	-420.86	1339	276.43	-409.29	1194.4	334.57	-361.41	1049.5	351.75	-330.5	932.92	283.62	-333.56	939.74	365.01	-294.04	857.62	332.96	-399.1	1457.3	-201.17	-450.19	1282.2	-275.39	-481.62	1118.1	-313.48	-465.6	978.15	-321.44	-409.43	856.29	-265.17	-462.91	839.09	-313.91	-402.81	771.51	-301.43	-388.39	598.34	226.39	-345.65	693.22	214.72	-442.44	367.16	149.54	-528.46	333.68	199.56	-361.48	762.31	-196.76	-319.51	598.45	-170.25	-284.77	696.89	-171.59	-323.23	513.69	-165.99	-292.26	511.84	-11.392	-245.02	395.89	-105.23	-262.47	229.2	-66.24	-282.62	303.72	-136.63	-249.61	313.95	-84.688	-194.71	37.484	-55.66	-146.69	31.475	-98.238	-267.53	25.607	-128.06	-515.96	321.41	140.99	-588.45	275.59	132.02	-397.86	486.22	67.127	-341.89	680.86	-182.92	-400.94	683.36	229.18	-701.91	84.334	95.15	-457.62	1116.5	242.22	-411.86	495.38	223.32	-437.38	1573.3	-98.054	-676.18	47.485	134.6	-719.72	225.95	74.257	-415.48	769.04	230.49	-802.65	277.25	109.86	-538.79	1374.9	103.2	-357.52	73.969	-56.56	-584.56	1026.3	36.978	-475.91	1483.1	-21.353	-535.25	1070.3	-208.89	-540.58	1167.7	1.4397	-572.95	1035.4	-47.504	-323.07	84.212	25.305	-418.8	1596	47.822	-402.08	47.554	5.407
286	1.43	-282.73	1655.7	-100.33	-279.34	1667.5	-1.3098	-274.51	1405.4	-19.951	-206.42	1248.9	-10.947	-322.87	984.46	-176.93	-317.06	991.93	177.59	-388.56	1499.3	148.52	-415.25	1339.8	275.9	-404.12	1195	333.94	-356.95	1049.8	351.13	-326.5	933.13	283.06	-329.64	939.96	364.44	-290.35	857.74	332.45	-393.14	1458.5	-201.61	-443.17	1283.2	-276.11	-473.11	1118.8	-314.36	-455.66	978.98	-322.37	-398.1	857.76	-266.25	-451.42	839.99	-314.94	-390.28	773.32	-302.82	-376.84	600.23	226.24	-335.37	695.67	214.46	-428.55	369.06	149.34	-514.43	335.01	199.26	-357.55	762.73	-197.2	-316.95	598.53	-170.51	-281.37	696.68	-171.96	-321.34	513.74	-166.13	-290.46	511.71	-11.517	-243.74	395.54	-105.37	-261.82	228.94	-66.301	-281.7	303.5	-136.72	-248.64	313.63	-84.784	-194.69	37.473	-55.75	-146.54	31.075	-98.501	-267.56	25.56	-128.08	-501.8	322.86	140.69	-573.94	276.61	131.6	-385.2	488.08	67.053	-338.62	681.13	-183.27	-390.57	685.07	228.89	-684.56	85.117	95.482	-452.87	1117.3	241.49	-398.95	497.34	223.19	-431.26	1574.6	-98.313	-658.28	49.166	134.9	-704.77	226.08	73.713	-406.28	770.55	230.07	-788.63	276.27	109.1	-532.96	1375.9	102.57	-357.38	74.05	-56.515	-578.55	1027.3	36.539	-469.95	1484.2	-21.727	-526.36	1070.3	-209.8	-534.67	1168.8	0.77429	-567.3	1036.7	-47.856	-322.87	84.209	25.354	-412.71	1597.1	47.634	-401.99	47.683	5.5012
287	1.435	-276.51	1656.9	-100.32	-273.15	1668.5	-1.2734	-268.64	1406.4	-20.284	-200.66	1249.9	-11.523	-317.35	985.63	-177.75	-311.12	993.29	177.59	-382.73	1500.1	148.21	-409.64	1340.4	275.38	-398.97	1195.6	333.3	-352.52	1050.2	350.53	-322.5	933.3	282.55	-325.74	940.16	363.91	-286.64	857.84	331.98	-387.2	1459.8	-202.04	-436.16	1284	-276.81	-464.58	1119.4	-315.24	-445.67	979.82	-323.31	-386.74	859.25	-267.3	-439.87	840.9	-315.97	-377.74	775.15	-304.15	-365.36	602.2	226.06	-325.15	698.19	214.2	-414.61	370.96	149.15	-500.34	336.27	198.95	-353.66	763.12	-197.62	-314.43	598.61	-170.76	-278.02	696.46	-172.33	-319.49	513.79	-166.26	-288.67	511.57	-11.633	-242.48	395.2	-105.5	-261.18	228.7	-66.357	-280.81	303.29	-136.8	-247.69	313.32	-84.872	-194.67	37.459	-55.839	-146.4	30.69	-98.758	-267.59	25.512	-128.1	-487.54	324.21	140.4	-559.25	277.42	131.18	-372.62	489.99	66.958	-335.39	681.39	-183.6	-380.25	686.84	228.59	-666.73	85.619	95.78	-448.13	1118	240.78	-386.12	499.35	223.03	-425.17	1576	-98.545	-639.82	50.711	135.15	-689.53	225.82	73.124	-397.13	772.1	229.65	-774.41	274.77	108.26	-527.15	1376.9	101.96	-357.24	74.134	-56.468	-572.58	1028.3	36.118	-464.01	1485.4	-22.091	-517.44	1070.3	-210.72	-528.78	1169.9	0.10886	-561.68	1037.8	-48.193	-322.68	84.207	25.405	-406.65	1598.1	47.475	-401.89	47.812	5.6018
288	1.44	-270.31	1658	-100.26	-266.99	1669.4	-1.199	-262.8	1407.4	-20.587	-194.91	1250.8	-12.063	-311.87	986.75	-178.58	-305.21	994.62	177.69	-376.94	1500.9	147.92	-404.04	1341.1	274.88	-393.84	1196.1	332.67	-348.11	1050.5	349.97	-318.51	933.45	282.08	-321.86	940.34	363.41	-282.93	857.94	331.58	-381.28	1461	-202.45	-429.15	1284.9	-277.51	-456.01	1120	-316.12	-435.62	980.67	-324.25	-375.35	860.77	-268.33	-428.26	841.85	-317.01	-365.19	776.99	-305.43	-353.95	604.24	225.86	-314.99	700.76	213.94	-400.63	372.86	148.96	-486.2	337.43	198.63	-349.8	763.5	-198.04	-311.95	598.68	-171	-274.71	696.22	-172.7	-317.67	513.84	-166.38	-286.9	511.44	-11.742	-241.24	394.87	-105.63	-260.55	228.45	-66.408	-279.92	303.09	-136.88	-246.75	313.01	-84.951	-194.65	37.441	-55.928	-146.27	30.322	-99.006	-267.63	25.464	-128.11	-473.18	325.45	140.12	-544.39	278.03	130.77	-360.12	491.96	66.84	-332.2	681.63	-183.92	-370	688.66	228.28	-648.46	85.849	96.049	-443.39	1118.8	240.07	-373.39	501.42	222.83	-419.1	1577.4	-98.749	-620.83	52.116	135.36	-674.02	225.19	72.497	-388.02	773.7	229.24	-759.99	272.76	107.36	-521.38	1377.8	101.37	-357.1	74.221	-56.42	-566.63	1029.3	35.719	-458.1	1486.5	-22.446	-508.51	1070.4	-211.68	-522.9	1171	-0.55491	-556.08	1039	-48.521	-322.49	84.208	25.458	-400.61	1599.1	47.344	-401.79	47.942	5.7075
289	1.445	-264.13	1659.1	-100.18	-260.85	1670.3	-1.0879	-256.98	1408.3	-20.864	-189.16	1251.6	-12.569	-306.43	987.82	-179.44	-299.32	995.91	177.88	-371.18	1501.6	147.65	-398.46	1341.7	274.39	-388.72	1196.6	332.05	-343.73	1050.7	349.43	-314.52	933.57	281.65	-317.99	940.48	362.95	-279.2	858.02	331.22	-375.38	1462.2	-202.85	-422.15	1285.7	-278.19	-447.42	1120.6	-317.02	-425.53	981.53	-325.2	-363.94	862.3	-269.33	-416.6	842.82	-318.05	-352.63	778.84	-306.64	-342.62	606.32	225.64	-304.92	703.36	213.68	-386.62	374.74	148.78	-472.02	338.51	198.29	-345.97	763.85	-198.44	-309.51	598.74	-171.22	-271.43	695.96	-173.07	-315.88	513.88	-166.49	-285.13	511.31	-11.842	-240.03	394.55	-105.74	-259.93	228.22	-66.452	-279.05	302.89	-136.95	-245.84	312.71	-85.022	-194.63	37.422	-56.015	-146.16	29.973	-99.244	-267.66	25.418	-128.13	-458.74	326.59	139.84	-529.38	278.45	130.36	-347.7	493.96	66.696	-329.04	681.86	-184.23	-359.82	690.51	227.96	-629.78	85.821	96.295	-438.64	1119.4	239.38	-360.76	503.52	222.59	-413.05	1578.7	-98.927	-601.38	53.379	135.53	-658.25	224.18	71.84	-378.97	775.31	228.85	-745.35	270.26	106.4	-515.63	1378.7	100.79	-356.97	74.31	-56.371	-560.72	1030.2	35.345	-452.19	1487.5	-22.794	-499.56	1070.4	-212.66	-517.04	1172	-1.2146	-550.49	1040.2	-48.841	-322.29	84.21	25.512	-394.6	1600.1	47.238	-401.68	48.071	5.8164
